<?xml version="1.0" encoding="UTF-8" standalone="no"?>
<svg
   xmlns:dc="http://purl.org/dc/elements/1.1/"
   xmlns:cc="http://creativecommons.org/ns#"
   xmlns:rdf="http://www.w3.org/1999/02/22-rdf-syntax-ns#"
   xmlns:svg="http://www.w3.org/2000/svg"
   xmlns="http://www.w3.org/2000/svg"
   viewBox="0 0 848.1228 473.32132"
   height="473.32132"
   width="848.1228"
   xml:space="preserve"
   id="svg2"
   version="1.1"><metadata
     id="metadata8"><rdf:RDF><cc:Work
         rdf:about=""><dc:format>image/svg+xml</dc:format><dc:type
           rdf:resource="http://purl.org/dc/dcmitype/StillImage" /></cc:Work></rdf:RDF></metadata><defs
     id="defs6"><clipPath
       id="clipPath14"
       clipPathUnits="userSpaceOnUse"><path
         id="path12"
         d="M 0,0 H 792 V 612 H 0 Z" /></clipPath><clipPath
       id="clipPath22"
       clipPathUnits="userSpaceOnUse"><path
         style="clip-rule:evenodd"
         id="path20"
         d="m 120.833,120.833 h 3062.5 v 2312.5 h -3062.5 z" /></clipPath><clipPath
       id="clipPath56"
       clipPathUnits="userSpaceOnUse"><path
         style="clip-rule:evenodd"
         id="path54"
         d="m 1939.583,795.833 h 175 v 100 h -175 z" /></clipPath><clipPath
       id="clipPath74"
       clipPathUnits="userSpaceOnUse"><path
         style="clip-rule:evenodd"
         id="path72"
         d="m 120.833,120.833 h 3062.5 v 2312.5 h -3062.5 z" /></clipPath><clipPath
       id="clipPath92"
       clipPathUnits="userSpaceOnUse"><path
         style="clip-rule:evenodd"
         id="path90"
         d="m 1158.333,1127.083 h 40.625 v 40.625 h -40.625 z" /></clipPath><clipPath
       id="clipPath110"
       clipPathUnits="userSpaceOnUse"><path
         style="clip-rule:evenodd"
         id="path108"
         d="m 120.833,120.833 h 3062.5 v 2312.5 h -3062.5 z" /></clipPath><clipPath
       id="clipPath124"
       clipPathUnits="userSpaceOnUse"><path
         style="clip-rule:evenodd"
         id="path122"
         d="m 1317.708,1127.083 h 40.625 v 40.625 h -40.625 z" /></clipPath><clipPath
       id="clipPath142"
       clipPathUnits="userSpaceOnUse"><path
         style="clip-rule:evenodd"
         id="path140"
         d="m 120.833,120.833 h 3062.5 v 2312.5 h -3062.5 z" /></clipPath><clipPath
       id="clipPath156"
       clipPathUnits="userSpaceOnUse"><path
         style="clip-rule:evenodd"
         id="path154"
         d="m 1477.083,1127.083 h 40.625 v 40.625 h -40.625 z" /></clipPath><clipPath
       id="clipPath174"
       clipPathUnits="userSpaceOnUse"><path
         style="clip-rule:evenodd"
         id="path172"
         d="m 120.833,120.833 h 3062.5 v 2312.5 h -3062.5 z" /></clipPath><clipPath
       id="clipPath188"
       clipPathUnits="userSpaceOnUse"><path
         style="clip-rule:evenodd"
         id="path186"
         d="m 1636.458,1127.083 h 40.625 v 40.625 h -40.625 z" /></clipPath><clipPath
       id="clipPath206"
       clipPathUnits="userSpaceOnUse"><path
         style="clip-rule:evenodd"
         id="path204"
         d="m 120.833,120.833 h 3062.5 v 2312.5 h -3062.5 z" /></clipPath><clipPath
       id="clipPath220"
       clipPathUnits="userSpaceOnUse"><path
         style="clip-rule:evenodd"
         id="path218"
         d="m 1795.833,1127.083 h 40.625 v 40.625 h -40.625 z" /></clipPath><clipPath
       id="clipPath238"
       clipPathUnits="userSpaceOnUse"><path
         style="clip-rule:evenodd"
         id="path236"
         d="m 120.833,120.833 h 3062.5 v 2312.5 h -3062.5 z" /></clipPath><clipPath
       id="clipPath252"
       clipPathUnits="userSpaceOnUse"><path
         style="clip-rule:evenodd"
         id="path250"
         d="m 1955.208,1127.083 h 40.625 v 40.625 h -40.625 z" /></clipPath><clipPath
       id="clipPath270"
       clipPathUnits="userSpaceOnUse"><path
         style="clip-rule:evenodd"
         id="path268"
         d="m 120.833,120.833 h 3062.5 v 2312.5 h -3062.5 z" /></clipPath><clipPath
       id="clipPath284"
       clipPathUnits="userSpaceOnUse"><path
         style="clip-rule:evenodd"
         id="path282"
         d="m 2114.583,1127.083 h 40.625 v 40.625 h -40.625 z" /></clipPath><clipPath
       id="clipPath302"
       clipPathUnits="userSpaceOnUse"><path
         style="clip-rule:evenodd"
         id="path300"
         d="m 120.833,120.833 h 3062.5 v 2312.5 h -3062.5 z" /></clipPath><clipPath
       id="clipPath356"
       clipPathUnits="userSpaceOnUse"><path
         style="clip-rule:evenodd"
         id="path354"
         d="m 1452.083,1630.208 h 40.625 v 40.625 h -40.625 z" /></clipPath><clipPath
       id="clipPath374"
       clipPathUnits="userSpaceOnUse"><path
         style="clip-rule:evenodd"
         id="path372"
         d="m 1558.333,1630.208 h 40.625 v 40.625 h -40.625 z" /></clipPath><clipPath
       id="clipPath392"
       clipPathUnits="userSpaceOnUse"><path
         style="clip-rule:evenodd"
         id="path390"
         d="m 1664.583,1630.208 h 40.625 v 40.625 h -40.625 z" /></clipPath><clipPath
       id="clipPath410"
       clipPathUnits="userSpaceOnUse"><path
         style="clip-rule:evenodd"
         id="path408"
         d="m 1770.833,1630.208 h 40.625 v 40.625 h -40.625 z" /></clipPath><clipPath
       id="clipPath428"
       clipPathUnits="userSpaceOnUse"><path
         style="clip-rule:evenodd"
         id="path426"
         d="m 1877.083,1630.208 h 40.625 v 40.625 h -40.625 z" /></clipPath><clipPath
       id="clipPath446"
       clipPathUnits="userSpaceOnUse"><path
         style="clip-rule:evenodd"
         id="path444"
         d="m 120.833,120.833 h 3062.5 v 2312.5 h -3062.5 z" /></clipPath><clipPath
       id="clipPath460"
       clipPathUnits="userSpaceOnUse"><path
         style="clip-rule:evenodd"
         id="path458"
         d="m 1564.583,1883.333 h 175 v 100 h -175 z" /></clipPath><clipPath
       id="clipPath478"
       clipPathUnits="userSpaceOnUse"><path
         style="clip-rule:evenodd"
         id="path476"
         d="m 120.833,120.833 h 3062.5 v 2312.5 h -3062.5 z" /></clipPath></defs><g
     clip-path="url(#clipPath14)"
     transform="matrix(1.3333333,0,0,-1.3333333,-108.1572,642.52)"
     id="g10"><g
       transform="matrix(0.24,0,0,-0.24,0,612)"
       id="g16"><g
         clip-path="url(#clipPath22)"
         id="g18"><g
           transform="matrix(3.1250002,0,0,3.1250002,120.83334,120.83334)"
           id="g24"><path
             id="path26"
             style="fill:#ffffff;fill-opacity:1;fill-rule:nonzero;stroke:none"
             d="M 0,0 H 980 V 740 H 0 Z" /><g
             transform="matrix(1.3333333,0,0,-1.3333333,-38.666668,777.33331)"
             id="g28"><text
               id="text32"
               style="font-variant:normal;font-weight:normal;font-size:15.99750042px;font-family:MicrosoftYaHei;-inkscape-font-specification:MicrosoftYaHei;writing-mode:lr-tb;fill:#000000;fill-opacity:1;fill-rule:nonzero;stroke:none"
               transform="matrix(1,0,0,-1,348.4883,442)"><tspan
                 id="tspan30"
                 y="0"
                 x="0">第</tspan></text>
<text
               id="text36"
               style="font-variant:normal;font-weight:normal;font-size:15.99750042px;font-family:ArialMT;-inkscape-font-specification:ArialMT;writing-mode:lr-tb;fill:#000000;fill-opacity:1;fill-rule:nonzero;stroke:none"
               transform="matrix(1,0,0,-1,364.4858,442)"><tspan
                 id="tspan34"
                 y="0"
                 x="0 8.897047 13.341665 22.238712">1/40</tspan></text>
<text
               id="text40"
               style="font-variant:normal;font-weight:normal;font-size:15.99750042px;font-family:MicrosoftYaHei;-inkscape-font-specification:MicrosoftYaHei;writing-mode:lr-tb;fill:#000000;fill-opacity:1;fill-rule:nonzero;stroke:none"
               transform="matrix(1,0,0,-1,395.62156,442)"><tspan
                 id="tspan38"
                 y="0"
                 x="0">题</tspan></text>
<text
               id="text44"
               style="font-variant:normal;font-weight:normal;font-size:15.99750042px;font-family:ArialMT;-inkscape-font-specification:ArialMT;writing-mode:lr-tb;fill:#000000;fill-opacity:1;fill-rule:nonzero;stroke:none"
               transform="matrix(1,0,0,-1,416.06368,442)"><tspan
                 id="tspan42"
                 y="0"
                 x="0 5.3272924 14.224339 23.121387">(10)</tspan></text>
<text
               id="text48"
               style="font-variant:normal;font-weight:normal;font-size:15.99750042px;font-family:MicrosoftYaHei;-inkscape-font-specification:MicrosoftYaHei;writing-mode:lr-tb;fill:#000000;fill-opacity:1;fill-rule:nonzero;stroke:none"
               transform="matrix(1,0,0,-1,285.7928,403)"><tspan
                 id="tspan46"
                 y="0"
                 x="0 15.9975 31.995001 47.9925 63.990002 79.987503 95.985001 111.9825 127.98 143.97749">您听到了以下哪个字？</tspan></text>
</g></g></g></g><g
       transform="matrix(0.24,0,0,-0.24,0,612)"
       id="g50"><g
         clip-path="url(#clipPath56)"
         id="g52"><g
           transform="matrix(3.1250002,0,0,3.1250002,402.08337,570.83337)"
           id="g58"><g
             transform="translate(492.5,101.5)"
             id="g60"><path
               id="path62"
               style="fill:#efefef;fill-opacity:1;fill-rule:nonzero;stroke:none"
               d="m 0,0 v -27 c 0,-0.265 0.051,-0.52 0.152,-0.765 0.102,-0.245 0.246,-0.462 0.434,-0.649 0.187,-0.188 0.404,-0.332 0.649,-0.434 C 1.48,-28.949 1.735,-29 2,-29 h 51 c 0.265,0 0.52,0.051 0.765,0.152 0.245,0.102 0.462,0.246 0.649,0.434 0.188,0.187 0.332,0.404 0.434,0.649 C 54.949,-27.52 55,-27.265 55,-27 V 0 C 55,0.265 54.949,0.52 54.848,0.765 54.746,1.01 54.602,1.227 54.414,1.414 54.227,1.602 54.01,1.746 53.765,1.848 53.52,1.949 53.265,2 53,2 H 2 C 1.735,2 1.48,1.949 1.235,1.848 0.99,1.746 0.773,1.602 0.586,1.414 0.398,1.227 0.254,1.01 0.152,0.765 0.051,0.52 0,0.265 0,0 Z" /></g><g
             transform="translate(492.5,101.5)"
             id="g64"><path
               id="path66"
               style="fill:none;stroke:#767676;stroke-width:1;stroke-linecap:butt;stroke-linejoin:miter;stroke-miterlimit:4;stroke-dasharray:none;stroke-opacity:1"
               d="m 0,0 v -27 c 0,-0.265 0.051,-0.52 0.152,-0.765 0.102,-0.245 0.246,-0.462 0.434,-0.649 0.187,-0.188 0.404,-0.332 0.649,-0.434 C 1.48,-28.949 1.735,-29 2,-29 h 51 c 0.265,0 0.52,0.051 0.765,0.152 0.245,0.102 0.462,0.246 0.649,0.434 0.188,0.187 0.332,0.404 0.434,0.649 C 54.949,-27.52 55,-27.265 55,-27 V 0 C 55,0.265 54.949,0.52 54.848,0.765 54.746,1.01 54.602,1.227 54.414,1.414 54.227,1.602 54.01,1.746 53.765,1.848 53.52,1.949 53.265,2 53,2 H 2 C 1.735,2 1.48,1.949 1.235,1.848 0.99,1.746 0.773,1.602 0.586,1.414 0.398,1.227 0.254,1.01 0.152,0.765 0.051,0.52 0,0.265 0,0 Z" /></g></g></g></g><g
       transform="matrix(0.24,0,0,-0.24,0,612)"
       id="g68"><g
         clip-path="url(#clipPath74)"
         id="g70"><g
           transform="matrix(4.1666668,0,0,-4.1666668,0,2550.0001)"
           id="g76"><text
             id="text80"
             style="font-variant:normal;font-weight:normal;font-size:15px;font-family:MicrosoftYaHei;-inkscape-font-specification:MicrosoftYaHei;writing-mode:lr-tb;fill:#000000;fill-opacity:1;fill-rule:nonzero;stroke:none"
             transform="matrix(1,0,0,-1,471.207,403)"><tspan
               id="tspan78"
               y="0"
               x="0 15">重播</tspan></text>
<text
             id="text84"
             style="font-variant:normal;font-weight:normal;font-size:13.99499989px;font-family:MicrosoftYaHei;-inkscape-font-specification:MicrosoftYaHei;writing-mode:lr-tb;fill:#000000;fill-opacity:1;fill-rule:nonzero;stroke:none"
             transform="matrix(1,0,0,-1,274.75425,347.5)"><tspan
               id="tspan82"
               y="0"
               x="0">四</tspan></text>
</g></g></g><g
       transform="matrix(0.24,0,0,-0.24,0,612)"
       id="g86"><g
         clip-path="url(#clipPath92)"
         id="g88"><g
           transform="matrix(3.1250002,0,0,3.1250002,402.08337,570.83337)"
           id="g94"><g
             transform="translate(254.8,184.5)"
             id="g96"><path
               id="path98"
               style="fill:#ffffff;fill-opacity:1;fill-rule:nonzero;stroke:none"
               d="m 0,0 c 0,0.414 -0.04,0.823 -0.121,1.229 -0.081,0.406 -0.2,0.8 -0.359,1.182 C -0.638,2.793 -0.832,3.156 -1.062,3.5 -1.292,3.844 -1.553,4.162 -1.845,4.455 -2.138,4.747 -2.456,5.008 -2.8,5.238 -3.144,5.468 -3.507,5.662 -3.889,5.82 -4.271,5.979 -4.665,6.098 -5.071,6.179 -5.477,6.26 -5.886,6.3 -6.3,6.3 -6.714,6.3 -7.123,6.26 -7.529,6.179 -7.935,6.098 -8.329,5.979 -8.711,5.82 -9.093,5.662 -9.456,5.468 -9.8,5.238 -10.144,5.008 -10.462,4.747 -10.755,4.455 -11.047,4.162 -11.308,3.844 -11.538,3.5 -11.768,3.156 -11.962,2.793 -12.12,2.411 -12.279,2.029 -12.398,1.635 -12.479,1.229 -12.56,0.823 -12.6,0.414 -12.6,0 c 0,-0.414 0.04,-0.823 0.121,-1.229 0.081,-0.406 0.2,-0.8 0.359,-1.182 0.158,-0.382 0.352,-0.745 0.582,-1.089 0.23,-0.344 0.491,-0.662 0.783,-0.955 0.293,-0.292 0.611,-0.553 0.955,-0.783 0.344,-0.23 0.707,-0.424 1.089,-0.582 0.382,-0.159 0.776,-0.278 1.182,-0.359 0.406,-0.081 0.815,-0.121 1.229,-0.121 0.414,0 0.823,0.04 1.229,0.121 0.406,0.081 0.8,0.2 1.182,0.359 0.382,0.158 0.745,0.352 1.089,0.582 0.344,0.23 0.662,0.491 0.955,0.783 0.292,0.293 0.553,0.611 0.783,0.955 0.23,0.344 0.424,0.707 0.582,1.089 0.159,0.382 0.278,0.776 0.359,1.182 C -0.04,-0.823 0,-0.414 0,0 Z" /></g><g
             transform="translate(254.5,184.5)"
             id="g100"><path
               id="path102"
               style="fill:none;stroke:#767676;stroke-width:1;stroke-linecap:butt;stroke-linejoin:miter;stroke-miterlimit:4;stroke-dasharray:none;stroke-opacity:1"
               d="M 0,0 C 0,0.394 -0.038,0.784 -0.115,1.171 -0.192,1.557 -0.306,1.932 -0.457,2.296 -0.608,2.66 -0.792,3.006 -1.011,3.333 -1.23,3.661 -1.479,3.964 -1.757,4.243 -2.036,4.521 -2.339,4.77 -2.667,4.989 -2.994,5.208 -3.34,5.392 -3.704,5.543 -4.068,5.694 -4.443,5.808 -4.829,5.885 -5.216,5.962 -5.606,6 -6,6 -6.394,6 -6.784,5.962 -7.171,5.885 -7.557,5.808 -7.932,5.694 -8.296,5.543 -8.66,5.392 -9.006,5.208 -9.333,4.989 -9.661,4.77 -9.964,4.521 -10.243,4.243 -10.521,3.964 -10.77,3.661 -10.989,3.333 -11.208,3.006 -11.393,2.66 -11.543,2.296 -11.694,1.932 -11.808,1.557 -11.885,1.171 -11.962,0.784 -12,0.394 -12,0 c 0,-0.394 0.038,-0.784 0.115,-1.171 0.077,-0.386 0.191,-0.761 0.342,-1.125 0.15,-0.364 0.335,-0.71 0.554,-1.037 0.219,-0.328 0.468,-0.631 0.746,-0.91 0.279,-0.278 0.582,-0.527 0.91,-0.746 0.327,-0.219 0.673,-0.404 1.037,-0.554 0.364,-0.151 0.739,-0.265 1.125,-0.342 C -6.784,-5.962 -6.394,-6 -6,-6 c 0.394,0 0.784,0.038 1.171,0.115 0.386,0.077 0.761,0.191 1.125,0.342 0.364,0.15 0.71,0.335 1.037,0.554 0.328,0.219 0.631,0.468 0.91,0.746 0.278,0.279 0.527,0.582 0.746,0.91 0.219,0.327 0.403,0.673 0.554,1.037 0.151,0.364 0.265,0.739 0.342,1.125 C -0.038,-0.784 0,-0.394 0,0 Z" /></g></g></g></g><g
       transform="matrix(0.24,0,0,-0.24,0,612)"
       id="g104"><g
         clip-path="url(#clipPath110)"
         id="g106"><g
           transform="matrix(4.1666668,0,0,-4.1666668,0,2550.0001)"
           id="g112"><text
             id="text116"
             style="font-variant:normal;font-weight:normal;font-size:13.99499989px;font-family:MicrosoftYaHei;-inkscape-font-specification:MicrosoftYaHei;writing-mode:lr-tb;fill:#000000;fill-opacity:1;fill-rule:nonzero;stroke:none"
             transform="matrix(1,0,0,-1,313.0039,347.5)"><tspan
               id="tspan114"
               y="0"
               x="0">湿</tspan></text>
</g></g></g><g
       transform="matrix(0.24,0,0,-0.24,0,612)"
       id="g118"><g
         clip-path="url(#clipPath124)"
         id="g120"><g
           transform="matrix(3.1250002,0,0,3.1250002,402.08337,570.83337)"
           id="g126"><g
             transform="translate(293.2,184.5)"
             id="g128"><path
               id="path130"
               style="fill:#ffffff;fill-opacity:1;fill-rule:nonzero;stroke:none"
               d="m 0,0 v 0 c 0,-0.414 0.04,-0.823 0.121,-1.229 0.081,-0.406 0.2,-0.8 0.359,-1.182 C 0.638,-2.793 0.832,-3.156 1.062,-3.5 1.292,-3.844 1.553,-4.162 1.845,-4.455 2.138,-4.747 2.456,-5.008 2.8,-5.238 3.144,-5.468 3.507,-5.662 3.889,-5.82 4.271,-5.979 4.665,-6.098 5.071,-6.179 5.477,-6.26 5.886,-6.3 6.3,-6.3 c 0.414,0 0.823,0.04 1.229,0.121 0.406,0.081 0.8,0.2 1.182,0.359 0.382,0.158 0.745,0.352 1.089,0.582 0.344,0.23 0.662,0.491 0.955,0.783 0.292,0.293 0.553,0.611 0.783,0.955 0.23,0.344 0.424,0.707 0.582,1.089 0.159,0.382 0.278,0.776 0.359,1.182 C 12.56,-0.823 12.6,-0.414 12.6,0 v 0 c 0,0.414 -0.04,0.823 -0.121,1.229 -0.081,0.406 -0.2,0.8 -0.359,1.182 C 11.962,2.793 11.768,3.156 11.538,3.5 11.308,3.844 11.047,4.162 10.755,4.455 10.462,4.747 10.144,5.008 9.8,5.238 9.456,5.468 9.093,5.662 8.711,5.82 8.329,5.979 7.935,6.098 7.529,6.179 7.123,6.26 6.714,6.3 6.3,6.3 5.886,6.3 5.477,6.26 5.071,6.179 4.665,6.098 4.271,5.979 3.889,5.82 3.507,5.662 3.144,5.468 2.8,5.238 2.456,5.008 2.138,4.747 1.845,4.455 1.553,4.162 1.292,3.844 1.062,3.5 0.832,3.156 0.638,2.793 0.48,2.411 0.321,2.029 0.202,1.635 0.121,1.229 0.04,0.823 0,0.414 0,0 Z" /></g><g
             transform="translate(305.5,184.5)"
             id="g132"><path
               id="path134"
               style="fill:none;stroke:#767676;stroke-width:1;stroke-linecap:butt;stroke-linejoin:miter;stroke-miterlimit:4;stroke-dasharray:none;stroke-opacity:1"
               d="M 0,0 C 0,0.394 -0.038,0.784 -0.115,1.171 -0.192,1.557 -0.306,1.932 -0.457,2.296 -0.608,2.66 -0.792,3.006 -1.011,3.333 -1.23,3.661 -1.479,3.964 -1.757,4.243 -2.036,4.521 -2.339,4.77 -2.667,4.989 -2.994,5.208 -3.34,5.392 -3.704,5.543 -4.068,5.694 -4.443,5.808 -4.829,5.885 -5.216,5.962 -5.606,6 -6,6 -6.394,6 -6.784,5.962 -7.171,5.885 -7.557,5.808 -7.932,5.694 -8.296,5.543 -8.66,5.392 -9.006,5.208 -9.333,4.989 -9.661,4.77 -9.964,4.521 -10.243,4.243 -10.521,3.964 -10.77,3.661 -10.989,3.333 -11.208,3.006 -11.393,2.66 -11.543,2.296 -11.694,1.932 -11.808,1.557 -11.885,1.171 -11.962,0.784 -12,0.394 -12,0 c 0,-0.394 0.038,-0.784 0.115,-1.171 0.077,-0.386 0.191,-0.761 0.342,-1.125 0.15,-0.364 0.335,-0.71 0.554,-1.037 0.219,-0.328 0.468,-0.631 0.746,-0.91 0.279,-0.278 0.582,-0.527 0.91,-0.746 0.327,-0.219 0.673,-0.404 1.037,-0.554 0.364,-0.151 0.739,-0.265 1.125,-0.342 C -6.784,-5.962 -6.394,-6 -6,-6 c 0.394,0 0.784,0.038 1.171,0.115 0.386,0.077 0.761,0.191 1.125,0.342 0.364,0.15 0.71,0.335 1.037,0.554 0.328,0.219 0.631,0.468 0.91,0.746 0.278,0.279 0.527,0.582 0.746,0.91 0.219,0.327 0.403,0.673 0.554,1.037 0.151,0.364 0.265,0.739 0.342,1.125 C -0.038,-0.784 0,-0.394 0,0 Z" /></g></g></g></g><g
       transform="matrix(0.24,0,0,-0.24,0,612)"
       id="g136"><g
         clip-path="url(#clipPath142)"
         id="g138"><g
           transform="matrix(4.1666668,0,0,-4.1666668,0,2550.0001)"
           id="g144"><text
             id="text148"
             style="font-variant:normal;font-weight:normal;font-size:13.99499989px;font-family:MicrosoftYaHei;-inkscape-font-specification:MicrosoftYaHei;writing-mode:lr-tb;fill:#000000;fill-opacity:1;fill-rule:nonzero;stroke:none"
             transform="matrix(1,0,0,-1,351.2539,347.5)"><tspan
               id="tspan146"
               y="0"
               x="0">实</tspan></text>
</g></g></g><g
       transform="matrix(0.24,0,0,-0.24,0,612)"
       id="g150"><g
         clip-path="url(#clipPath156)"
         id="g152"><g
           transform="matrix(3.1250002,0,0,3.1250002,402.08337,570.83337)"
           id="g158"><g
             transform="translate(344.2,184.5)"
             id="g160"><path
               id="path162"
               style="fill:#ffffff;fill-opacity:1;fill-rule:nonzero;stroke:none"
               d="m 0,0 v 0 c 0,-0.414 0.04,-0.823 0.121,-1.229 0.081,-0.406 0.2,-0.8 0.359,-1.182 C 0.638,-2.793 0.832,-3.156 1.062,-3.5 1.292,-3.844 1.553,-4.162 1.845,-4.455 2.138,-4.747 2.456,-5.008 2.8,-5.238 3.144,-5.468 3.507,-5.662 3.889,-5.82 4.271,-5.979 4.665,-6.098 5.071,-6.179 5.477,-6.26 5.886,-6.3 6.3,-6.3 c 0.414,0 0.823,0.04 1.229,0.121 0.406,0.081 0.8,0.2 1.182,0.359 0.382,0.158 0.745,0.352 1.089,0.582 0.344,0.23 0.662,0.491 0.955,0.783 0.292,0.293 0.553,0.611 0.783,0.955 0.23,0.344 0.424,0.707 0.582,1.089 0.159,0.382 0.278,0.776 0.359,1.182 C 12.56,-0.823 12.6,-0.414 12.6,0 v 0 c 0,0.414 -0.04,0.823 -0.121,1.229 -0.081,0.406 -0.2,0.8 -0.359,1.182 C 11.962,2.793 11.768,3.156 11.538,3.5 11.308,3.844 11.047,4.162 10.755,4.455 10.462,4.747 10.144,5.008 9.8,5.238 9.456,5.468 9.093,5.662 8.711,5.82 8.329,5.979 7.935,6.098 7.529,6.179 7.123,6.26 6.714,6.3 6.3,6.3 5.886,6.3 5.477,6.26 5.071,6.179 4.665,6.098 4.271,5.979 3.889,5.82 3.507,5.662 3.144,5.468 2.8,5.238 2.456,5.008 2.138,4.747 1.845,4.455 1.553,4.162 1.292,3.844 1.062,3.5 0.832,3.156 0.638,2.793 0.48,2.411 0.321,2.029 0.202,1.635 0.121,1.229 0.04,0.823 0,0.414 0,0 Z" /></g><g
             transform="translate(356.5,184.5)"
             id="g164"><path
               id="path166"
               style="fill:none;stroke:#767676;stroke-width:1;stroke-linecap:butt;stroke-linejoin:miter;stroke-miterlimit:4;stroke-dasharray:none;stroke-opacity:1"
               d="M 0,0 C 0,0.394 -0.038,0.784 -0.115,1.171 -0.192,1.557 -0.306,1.932 -0.457,2.296 -0.608,2.66 -0.792,3.006 -1.011,3.333 -1.23,3.661 -1.479,3.964 -1.757,4.243 -2.036,4.521 -2.339,4.77 -2.667,4.989 -2.994,5.208 -3.34,5.392 -3.704,5.543 -4.068,5.694 -4.443,5.808 -4.829,5.885 -5.216,5.962 -5.606,6 -6,6 -6.394,6 -6.784,5.962 -7.171,5.885 -7.557,5.808 -7.932,5.694 -8.296,5.543 -8.66,5.392 -9.006,5.208 -9.333,4.989 -9.661,4.77 -9.964,4.521 -10.243,4.243 -10.521,3.964 -10.77,3.661 -10.989,3.333 -11.208,3.006 -11.393,2.66 -11.543,2.296 -11.694,1.932 -11.808,1.557 -11.885,1.171 -11.962,0.784 -12,0.394 -12,0 c 0,-0.394 0.038,-0.784 0.115,-1.171 0.077,-0.386 0.191,-0.761 0.342,-1.125 0.15,-0.364 0.335,-0.71 0.554,-1.037 0.219,-0.328 0.468,-0.631 0.746,-0.91 0.279,-0.278 0.582,-0.527 0.91,-0.746 0.327,-0.219 0.673,-0.404 1.037,-0.554 0.364,-0.151 0.739,-0.265 1.125,-0.342 C -6.784,-5.962 -6.394,-6 -6,-6 c 0.394,0 0.784,0.038 1.171,0.115 0.386,0.077 0.761,0.191 1.125,0.342 0.364,0.15 0.71,0.335 1.037,0.554 0.328,0.219 0.631,0.468 0.91,0.746 0.278,0.279 0.527,0.582 0.746,0.91 0.219,0.327 0.403,0.673 0.554,1.037 0.151,0.364 0.265,0.739 0.342,1.125 C -0.038,-0.784 0,-0.394 0,0 Z" /></g></g></g></g><g
       transform="matrix(0.24,0,0,-0.24,0,612)"
       id="g168"><g
         clip-path="url(#clipPath174)"
         id="g170"><g
           transform="matrix(4.1666668,0,0,-4.1666668,0,2550.0001)"
           id="g176"><text
             id="text180"
             style="font-variant:normal;font-weight:normal;font-size:13.99499989px;font-family:MicrosoftYaHei;-inkscape-font-specification:MicrosoftYaHei;writing-mode:lr-tb;fill:#000000;fill-opacity:1;fill-rule:nonzero;stroke:none"
             transform="matrix(1,0,0,-1,389.5039,347.5)"><tspan
               id="tspan178"
               y="0"
               x="0">死</tspan></text>
</g></g></g><g
       transform="matrix(0.24,0,0,-0.24,0,612)"
       id="g182"><g
         clip-path="url(#clipPath188)"
         id="g184"><g
           transform="matrix(3.1250002,0,0,3.1250002,402.08337,570.83337)"
           id="g190"><g
             transform="translate(395.2,184.5)"
             id="g192"><path
               id="path194"
               style="fill:#ffffff;fill-opacity:1;fill-rule:nonzero;stroke:none"
               d="m 0,0 v 0 c 0,-0.414 0.04,-0.823 0.121,-1.229 0.081,-0.406 0.2,-0.8 0.358,-1.182 C 0.638,-2.793 0.832,-3.156 1.062,-3.5 1.291,-3.844 1.553,-4.162 1.845,-4.455 2.138,-4.747 2.456,-5.008 2.8,-5.238 3.144,-5.468 3.507,-5.662 3.889,-5.82 4.271,-5.979 4.665,-6.098 5.071,-6.179 5.477,-6.26 5.886,-6.3 6.3,-6.3 c 0.414,0 0.823,0.04 1.229,0.121 0.406,0.081 0.8,0.2 1.182,0.359 0.382,0.158 0.745,0.352 1.089,0.582 0.344,0.23 0.662,0.491 0.955,0.783 0.292,0.293 0.553,0.611 0.783,0.955 0.23,0.344 0.424,0.707 0.582,1.089 0.159,0.382 0.278,0.776 0.359,1.182 C 12.56,-0.823 12.6,-0.414 12.6,0 v 0 c 0,0.414 -0.04,0.823 -0.121,1.229 -0.081,0.406 -0.2,0.8 -0.359,1.182 C 11.962,2.793 11.768,3.156 11.538,3.5 11.308,3.844 11.047,4.162 10.755,4.455 10.462,4.747 10.144,5.008 9.8,5.238 9.456,5.468 9.093,5.662 8.711,5.82 8.329,5.979 7.935,6.098 7.529,6.179 7.123,6.26 6.714,6.3 6.3,6.3 5.886,6.3 5.477,6.26 5.071,6.179 4.665,6.098 4.271,5.979 3.889,5.82 3.507,5.662 3.144,5.468 2.8,5.238 2.456,5.008 2.138,4.747 1.845,4.455 1.553,4.162 1.291,3.844 1.062,3.5 0.832,3.156 0.638,2.793 0.479,2.411 0.321,2.029 0.202,1.635 0.121,1.229 0.04,0.823 0,0.414 0,0 Z" /></g><g
             transform="translate(407.5,184.5)"
             id="g196"><path
               id="path198"
               style="fill:none;stroke:#767676;stroke-width:1;stroke-linecap:butt;stroke-linejoin:miter;stroke-miterlimit:4;stroke-dasharray:none;stroke-opacity:1"
               d="M 0,0 C 0,0.394 -0.038,0.784 -0.115,1.171 -0.192,1.557 -0.306,1.932 -0.457,2.296 -0.608,2.66 -0.792,3.006 -1.011,3.333 -1.23,3.661 -1.479,3.964 -1.757,4.243 -2.036,4.521 -2.339,4.77 -2.667,4.989 -2.994,5.208 -3.34,5.392 -3.704,5.543 -4.068,5.694 -4.443,5.808 -4.829,5.885 -5.216,5.962 -5.606,6 -6,6 -6.394,6 -6.784,5.962 -7.171,5.885 -7.557,5.808 -7.932,5.694 -8.296,5.543 -8.66,5.392 -9.006,5.208 -9.333,4.989 -9.661,4.77 -9.964,4.521 -10.243,4.243 -10.521,3.964 -10.77,3.661 -10.989,3.333 -11.208,3.006 -11.393,2.66 -11.543,2.296 -11.694,1.932 -11.808,1.557 -11.885,1.171 -11.962,0.784 -12,0.394 -12,0 c 0,-0.394 0.038,-0.784 0.115,-1.171 0.077,-0.386 0.191,-0.761 0.342,-1.125 0.15,-0.364 0.335,-0.71 0.554,-1.037 0.219,-0.328 0.468,-0.631 0.746,-0.91 0.279,-0.278 0.582,-0.527 0.91,-0.746 0.327,-0.219 0.673,-0.404 1.037,-0.554 0.364,-0.151 0.739,-0.265 1.125,-0.342 C -6.784,-5.962 -6.394,-6 -6,-6 c 0.394,0 0.784,0.038 1.171,0.115 0.386,0.077 0.761,0.191 1.125,0.342 0.364,0.15 0.71,0.335 1.037,0.554 0.328,0.219 0.631,0.468 0.91,0.746 0.278,0.279 0.527,0.582 0.746,0.91 0.219,0.327 0.403,0.673 0.554,1.037 0.151,0.364 0.265,0.739 0.342,1.125 C -0.038,-0.784 0,-0.394 0,0 Z" /></g></g></g></g><g
       transform="matrix(0.24,0,0,-0.24,0,612)"
       id="g200"><g
         clip-path="url(#clipPath206)"
         id="g202"><g
           transform="matrix(4.1666668,0,0,-4.1666668,0,2550.0001)"
           id="g208"><text
             id="text212"
             style="font-variant:normal;font-weight:normal;font-size:13.99499989px;font-family:MicrosoftYaHei;-inkscape-font-specification:MicrosoftYaHei;writing-mode:lr-tb;fill:#000000;fill-opacity:1;fill-rule:nonzero;stroke:none"
             transform="matrix(1,0,0,-1,427.7539,347.5)"><tspan
               id="tspan210"
               y="0"
               x="0">是</tspan></text>
</g></g></g><g
       transform="matrix(0.24,0,0,-0.24,0,612)"
       id="g214"><g
         clip-path="url(#clipPath220)"
         id="g216"><g
           transform="matrix(3.1250002,0,0,3.1250002,402.08337,570.83337)"
           id="g222"><g
             transform="translate(446.2,184.5)"
             id="g224"><path
               id="path226"
               style="fill:#ffffff;fill-opacity:1;fill-rule:nonzero;stroke:none"
               d="m 0,0 v 0 c 0,-0.414 0.04,-0.823 0.121,-1.229 0.081,-0.406 0.2,-0.8 0.359,-1.182 C 0.638,-2.793 0.832,-3.156 1.062,-3.5 1.292,-3.844 1.553,-4.162 1.845,-4.455 2.138,-4.747 2.456,-5.008 2.8,-5.238 3.144,-5.468 3.507,-5.662 3.889,-5.82 4.271,-5.979 4.665,-6.098 5.071,-6.179 5.477,-6.26 5.886,-6.3 6.3,-6.3 c 0.414,0 0.823,0.04 1.229,0.121 0.406,0.081 0.8,0.2 1.182,0.359 0.382,0.158 0.745,0.352 1.089,0.582 0.344,0.23 0.662,0.491 0.955,0.783 0.292,0.293 0.553,0.611 0.783,0.955 0.23,0.344 0.424,0.707 0.582,1.089 0.159,0.382 0.278,0.776 0.359,1.182 C 12.56,-0.823 12.6,-0.414 12.6,0 v 0 c 0,0.414 -0.04,0.823 -0.121,1.229 -0.081,0.406 -0.2,0.8 -0.359,1.182 C 11.962,2.793 11.768,3.156 11.538,3.5 11.308,3.844 11.047,4.162 10.755,4.455 10.462,4.747 10.144,5.008 9.8,5.238 9.456,5.468 9.093,5.662 8.711,5.82 8.329,5.979 7.935,6.098 7.529,6.179 7.123,6.26 6.714,6.3 6.3,6.3 5.886,6.3 5.477,6.26 5.071,6.179 4.665,6.098 4.271,5.979 3.889,5.82 3.507,5.662 3.144,5.468 2.8,5.238 2.456,5.008 2.138,4.747 1.845,4.455 1.553,4.162 1.292,3.844 1.062,3.5 0.832,3.156 0.638,2.793 0.48,2.411 0.321,2.029 0.202,1.635 0.121,1.229 0.04,0.823 0,0.414 0,0 Z" /></g><g
             transform="translate(458.5,184.5)"
             id="g228"><path
               id="path230"
               style="fill:none;stroke:#767676;stroke-width:1;stroke-linecap:butt;stroke-linejoin:miter;stroke-miterlimit:4;stroke-dasharray:none;stroke-opacity:1"
               d="M 0,0 C 0,0.394 -0.038,0.784 -0.115,1.171 -0.192,1.557 -0.306,1.932 -0.457,2.296 -0.608,2.66 -0.792,3.006 -1.011,3.333 -1.23,3.661 -1.479,3.964 -1.757,4.243 -2.036,4.521 -2.339,4.77 -2.667,4.989 -2.994,5.208 -3.34,5.392 -3.704,5.543 -4.068,5.694 -4.443,5.808 -4.829,5.885 -5.216,5.962 -5.606,6 -6,6 -6.394,6 -6.784,5.962 -7.171,5.885 -7.557,5.808 -7.932,5.694 -8.296,5.543 -8.66,5.392 -9.006,5.208 -9.333,4.989 -9.661,4.77 -9.964,4.521 -10.243,4.243 -10.521,3.964 -10.77,3.661 -10.989,3.333 -11.208,3.006 -11.393,2.66 -11.543,2.296 -11.694,1.932 -11.808,1.557 -11.885,1.171 -11.962,0.784 -12,0.394 -12,0 c 0,-0.394 0.038,-0.784 0.115,-1.171 0.077,-0.386 0.191,-0.761 0.342,-1.125 0.15,-0.364 0.335,-0.71 0.554,-1.037 0.219,-0.328 0.468,-0.631 0.746,-0.91 0.279,-0.278 0.582,-0.527 0.91,-0.746 0.327,-0.219 0.673,-0.404 1.037,-0.554 0.364,-0.151 0.739,-0.265 1.125,-0.342 C -6.784,-5.962 -6.394,-6 -6,-6 c 0.394,0 0.784,0.038 1.171,0.115 0.386,0.077 0.761,0.191 1.125,0.342 0.364,0.15 0.71,0.335 1.037,0.554 0.328,0.219 0.631,0.468 0.91,0.746 0.278,0.279 0.527,0.582 0.746,0.91 0.219,0.327 0.403,0.673 0.554,1.037 0.151,0.364 0.265,0.739 0.342,1.125 C -0.038,-0.784 0,-0.394 0,0 Z" /></g></g></g></g><g
       transform="matrix(0.24,0,0,-0.24,0,612)"
       id="g232"><g
         clip-path="url(#clipPath238)"
         id="g234"><g
           transform="matrix(4.1666668,0,0,-4.1666668,0,2550.0001)"
           id="g240"><text
             id="text244"
             style="font-variant:normal;font-weight:normal;font-size:13.99499989px;font-family:MicrosoftYaHei;-inkscape-font-specification:MicrosoftYaHei;writing-mode:lr-tb;fill:#000000;fill-opacity:1;fill-rule:nonzero;stroke:none"
             transform="matrix(1,0,0,-1,466.0039,347.5)"><tspan
               id="tspan242"
               y="0"
               x="0">时</tspan></text>
</g></g></g><g
       transform="matrix(0.24,0,0,-0.24,0,612)"
       id="g246"><g
         clip-path="url(#clipPath252)"
         id="g248"><g
           transform="matrix(3.1250002,0,0,3.1250002,402.08337,570.83337)"
           id="g254"><g
             transform="translate(497.2,184.5)"
             id="g256"><path
               id="path258"
               style="fill:#ffffff;fill-opacity:1;fill-rule:nonzero;stroke:none"
               d="m 0,0 v 0 c 0,-0.414 0.04,-0.823 0.121,-1.229 0.081,-0.406 0.2,-0.8 0.358,-1.182 C 0.638,-2.793 0.832,-3.156 1.062,-3.5 1.291,-3.844 1.553,-4.162 1.845,-4.455 2.138,-4.747 2.456,-5.008 2.8,-5.238 3.144,-5.468 3.507,-5.662 3.889,-5.82 4.271,-5.979 4.665,-6.098 5.071,-6.179 5.477,-6.26 5.886,-6.3 6.3,-6.3 c 0.414,0 0.823,0.04 1.229,0.121 0.406,0.081 0.8,0.2 1.182,0.359 0.382,0.158 0.745,0.352 1.089,0.582 0.344,0.23 0.662,0.491 0.955,0.783 0.292,0.293 0.553,0.611 0.783,0.955 0.23,0.344 0.424,0.707 0.582,1.089 0.159,0.382 0.278,0.776 0.359,1.182 C 12.56,-0.823 12.6,-0.414 12.6,0 v 0 c 0,0.414 -0.04,0.823 -0.121,1.229 -0.081,0.406 -0.2,0.8 -0.359,1.182 C 11.962,2.793 11.768,3.156 11.538,3.5 11.308,3.844 11.047,4.162 10.755,4.455 10.462,4.747 10.144,5.008 9.8,5.238 9.456,5.468 9.093,5.662 8.711,5.82 8.329,5.979 7.935,6.098 7.529,6.179 7.123,6.26 6.714,6.3 6.3,6.3 5.886,6.3 5.477,6.26 5.071,6.179 4.665,6.098 4.271,5.979 3.889,5.82 3.507,5.662 3.144,5.468 2.8,5.238 2.456,5.008 2.138,4.747 1.845,4.455 1.553,4.162 1.291,3.844 1.062,3.5 0.832,3.156 0.638,2.793 0.479,2.411 0.321,2.029 0.202,1.635 0.121,1.229 0.04,0.823 0,0.414 0,0 Z" /></g><g
             transform="translate(509.5,184.5)"
             id="g260"><path
               id="path262"
               style="fill:none;stroke:#767676;stroke-width:1;stroke-linecap:butt;stroke-linejoin:miter;stroke-miterlimit:4;stroke-dasharray:none;stroke-opacity:1"
               d="M 0,0 C 0,0.394 -0.038,0.784 -0.115,1.171 -0.192,1.557 -0.306,1.932 -0.457,2.296 -0.608,2.66 -0.792,3.006 -1.011,3.333 -1.23,3.661 -1.479,3.964 -1.757,4.243 -2.036,4.521 -2.339,4.77 -2.667,4.989 -2.994,5.208 -3.34,5.392 -3.704,5.543 -4.068,5.694 -4.443,5.808 -4.829,5.885 -5.216,5.962 -5.606,6 -6,6 -6.394,6 -6.784,5.962 -7.171,5.885 -7.557,5.808 -7.932,5.694 -8.296,5.543 -8.66,5.392 -9.006,5.208 -9.333,4.989 -9.661,4.77 -9.964,4.521 -10.243,4.243 -10.521,3.964 -10.77,3.661 -10.989,3.333 -11.208,3.006 -11.393,2.66 -11.543,2.296 -11.694,1.932 -11.808,1.557 -11.885,1.171 -11.962,0.784 -12,0.394 -12,0 c 0,-0.394 0.038,-0.784 0.115,-1.171 0.077,-0.386 0.191,-0.761 0.342,-1.125 0.15,-0.364 0.335,-0.71 0.554,-1.037 0.219,-0.328 0.468,-0.631 0.746,-0.91 0.279,-0.278 0.582,-0.527 0.91,-0.746 0.327,-0.219 0.673,-0.404 1.037,-0.554 0.364,-0.151 0.739,-0.265 1.125,-0.342 C -6.784,-5.962 -6.394,-6 -6,-6 c 0.394,0 0.784,0.038 1.17,0.115 0.387,0.077 0.762,0.191 1.126,0.342 0.364,0.15 0.71,0.335 1.037,0.554 0.328,0.219 0.631,0.468 0.91,0.746 0.278,0.279 0.527,0.582 0.746,0.91 0.219,0.327 0.403,0.673 0.554,1.037 0.151,0.364 0.265,0.739 0.342,1.125 C -0.038,-0.784 0,-0.394 0,0 Z" /></g></g></g></g><g
       transform="matrix(0.24,0,0,-0.24,0,612)"
       id="g264"><g
         clip-path="url(#clipPath270)"
         id="g266"><g
           transform="matrix(4.1666668,0,0,-4.1666668,0,2550.0001)"
           id="g272"><text
             id="text276"
             style="font-variant:normal;font-weight:normal;font-size:13.99499989px;font-family:MicrosoftYaHei;-inkscape-font-specification:MicrosoftYaHei;writing-mode:lr-tb;fill:#000000;fill-opacity:1;fill-rule:nonzero;stroke:none"
             transform="matrix(1,0,0,-1,504.2539,347.5)"><tspan
               id="tspan274"
               y="0"
               x="0">诗</tspan></text>
</g></g></g><g
       transform="matrix(0.24,0,0,-0.24,0,612)"
       id="g278"><g
         clip-path="url(#clipPath284)"
         id="g280"><g
           transform="matrix(3.1250002,0,0,3.1250002,402.08337,570.83337)"
           id="g286"><g
             transform="translate(548.2,184.5)"
             id="g288"><path
               id="path290"
               style="fill:#ffffff;fill-opacity:1;fill-rule:nonzero;stroke:none"
               d="m 0,0 v 0 c 0,-0.414 0.04,-0.823 0.121,-1.229 0.081,-0.406 0.2,-0.8 0.358,-1.182 C 0.638,-2.793 0.832,-3.156 1.062,-3.5 1.292,-3.844 1.553,-4.162 1.845,-4.455 2.138,-4.747 2.456,-5.008 2.8,-5.238 3.144,-5.468 3.507,-5.662 3.889,-5.82 4.271,-5.979 4.665,-6.098 5.071,-6.179 5.477,-6.26 5.886,-6.3 6.3,-6.3 c 0.414,0 0.823,0.04 1.229,0.121 0.406,0.081 0.8,0.2 1.182,0.359 0.382,0.158 0.745,0.352 1.089,0.582 0.344,0.23 0.662,0.491 0.955,0.783 0.292,0.293 0.553,0.611 0.783,0.955 0.23,0.344 0.424,0.707 0.582,1.089 0.159,0.382 0.278,0.776 0.359,1.182 C 12.56,-0.823 12.6,-0.414 12.6,0 v 0 c 0,0.414 -0.04,0.823 -0.121,1.229 -0.081,0.406 -0.2,0.8 -0.359,1.182 C 11.962,2.793 11.768,3.156 11.538,3.5 11.308,3.844 11.047,4.162 10.755,4.455 10.462,4.747 10.144,5.008 9.8,5.238 9.456,5.468 9.093,5.662 8.711,5.82 8.329,5.979 7.935,6.098 7.529,6.179 7.123,6.26 6.714,6.3 6.3,6.3 5.886,6.3 5.477,6.26 5.071,6.179 4.665,6.098 4.271,5.979 3.889,5.82 3.507,5.662 3.144,5.468 2.8,5.238 2.456,5.008 2.138,4.747 1.845,4.455 1.553,4.162 1.292,3.844 1.062,3.5 0.832,3.156 0.638,2.793 0.479,2.411 0.321,2.029 0.202,1.635 0.121,1.229 0.04,0.823 0,0.414 0,0 Z" /></g><g
             transform="translate(560.5,184.5)"
             id="g292"><path
               id="path294"
               style="fill:none;stroke:#767676;stroke-width:1;stroke-linecap:butt;stroke-linejoin:miter;stroke-miterlimit:4;stroke-dasharray:none;stroke-opacity:1"
               d="M 0,0 C 0,0.394 -0.039,0.784 -0.115,1.171 -0.192,1.557 -0.306,1.932 -0.457,2.296 -0.608,2.66 -0.792,3.006 -1.011,3.333 -1.23,3.661 -1.479,3.964 -1.757,4.243 -2.036,4.521 -2.339,4.77 -2.667,4.989 -2.994,5.208 -3.34,5.392 -3.704,5.543 -4.068,5.694 -4.443,5.808 -4.829,5.885 -5.216,5.962 -5.606,6 -6,6 -6.394,6 -6.784,5.962 -7.171,5.885 -7.557,5.808 -7.932,5.694 -8.296,5.543 -8.66,5.392 -9.006,5.208 -9.333,4.989 -9.661,4.77 -9.964,4.521 -10.243,4.243 -10.521,3.964 -10.77,3.661 -10.989,3.333 -11.208,3.006 -11.393,2.66 -11.543,2.296 -11.694,1.932 -11.808,1.557 -11.885,1.171 -11.962,0.784 -12,0.394 -12,0 c 0,-0.394 0.038,-0.784 0.115,-1.171 0.077,-0.386 0.191,-0.761 0.342,-1.125 0.15,-0.364 0.335,-0.71 0.554,-1.037 0.219,-0.328 0.468,-0.631 0.746,-0.91 0.279,-0.278 0.582,-0.527 0.91,-0.746 0.327,-0.219 0.673,-0.404 1.037,-0.554 0.364,-0.151 0.739,-0.265 1.125,-0.342 C -6.784,-5.962 -6.394,-6 -6,-6 c 0.394,0 0.784,0.038 1.171,0.115 0.386,0.077 0.761,0.191 1.125,0.342 0.364,0.15 0.71,0.335 1.037,0.554 0.328,0.219 0.631,0.468 0.91,0.746 0.278,0.279 0.527,0.582 0.746,0.91 0.219,0.327 0.403,0.673 0.554,1.037 0.151,0.364 0.265,0.739 0.342,1.125 C -0.039,-0.784 0,-0.394 0,0 Z" /></g></g></g></g><g
       transform="matrix(0.24,0,0,-0.24,0,612)"
       id="g296"><g
         clip-path="url(#clipPath302)"
         id="g298"><g
           transform="matrix(4.1666668,0,0,-4.1666668,0,2550.0001)"
           id="g304"><text
             id="text308"
             style="font-variant:normal;font-weight:normal;font-size:13.99499989px;font-family:MicrosoftYaHei;-inkscape-font-specification:MicrosoftYaHei;writing-mode:lr-tb;fill:#000000;fill-opacity:1;fill-rule:nonzero;stroke:none"
             transform="matrix(1,0,0,-1,101.0352,265)"><tspan
               id="tspan306"
               y="0"
               x="0 13.995 27.99 41.985001 55.98 69.974998 83.970001 97.964996 111.96 125.955 139.95 153.94501 167.94 181.935 195.92999">您觉得录音和选的这个字配不配？</tspan></text>
<text
             id="text312"
             style="font-variant:normal;font-weight:normal;font-size:13.99499989px;font-family:ArialMT;-inkscape-font-specification:ArialMT;writing-mode:lr-tb;fill:#000000;fill-opacity:1;fill-rule:nonzero;stroke:none"
             transform="matrix(1,0,0,-1,310.9602,265)"><tspan
               id="tspan310"
               y="0"
               x="0">1</tspan></text>
<text
             id="text316"
             style="font-variant:normal;font-weight:normal;font-size:13.99499989px;font-family:MicrosoftYaHei;-inkscape-font-specification:MicrosoftYaHei;writing-mode:lr-tb;fill:#000000;fill-opacity:1;fill-rule:nonzero;stroke:none"
             transform="matrix(1,0,0,-1,318.74355,265)"><tspan
               id="tspan314"
               y="0"
               x="0 13.995 27.99 41.985001 55.98 69.974998 83.970001">代表非常不配，</tspan></text>
<text
             id="text320"
             style="font-variant:normal;font-weight:normal;font-size:13.99499989px;font-family:ArialMT;-inkscape-font-specification:ArialMT;writing-mode:lr-tb;fill:#000000;fill-opacity:1;fill-rule:nonzero;stroke:none"
             transform="matrix(1,0,0,-1,416.70855,265)"><tspan
               id="tspan318"
               y="0"
               x="0">5</tspan></text>
<text
             id="text324"
             style="font-variant:normal;font-weight:normal;font-size:13.99499989px;font-family:MicrosoftYaHei;-inkscape-font-specification:MicrosoftYaHei;writing-mode:lr-tb;fill:#000000;fill-opacity:1;fill-rule:nonzero;stroke:none"
             transform="matrix(1,0,0,-1,424.4919,265)"><tspan
               id="tspan322"
               y="0"
               x="0 13.995 27.99 41.985001 55.98 69.974998 83.970001 97.964996 111.96">代表非常配。请选择</tspan></text>
<text
             id="text328"
             style="font-variant:normal;font-weight:normal;font-size:13.99499989px;font-family:ArialMT;-inkscape-font-specification:ArialMT;writing-mode:lr-tb;fill:#000000;fill-opacity:1;fill-rule:nonzero;stroke:none"
             transform="matrix(1,0,0,-1,550.4469,265)"><tspan
               id="tspan326"
               y="0"
               x="0">1</tspan></text>
<text
             id="text332"
             style="font-variant:normal;font-weight:normal;font-size:13.99499989px;font-family:MicrosoftYaHei;-inkscape-font-specification:MicrosoftYaHei;writing-mode:lr-tb;fill:#000000;fill-opacity:1;fill-rule:nonzero;stroke:none"
             transform="matrix(1,0,0,-1,558.23026,265)"><tspan
               id="tspan330"
               y="0"
               x="0">到</tspan></text>
<text
             id="text336"
             style="font-variant:normal;font-weight:normal;font-size:13.99499989px;font-family:ArialMT;-inkscape-font-specification:ArialMT;writing-mode:lr-tb;fill:#000000;fill-opacity:1;fill-rule:nonzero;stroke:none"
             transform="matrix(1,0,0,-1,572.22526,265)"><tspan
               id="tspan334"
               y="0"
               x="0">5</tspan></text>
<text
             id="text340"
             style="font-variant:normal;font-weight:normal;font-size:13.99499989px;font-family:MicrosoftYaHei;-inkscape-font-specification:MicrosoftYaHei;writing-mode:lr-tb;fill:#000000;fill-opacity:1;fill-rule:nonzero;stroke:none"
             transform="matrix(1,0,0,-1,580.00861,265)"><tspan
               id="tspan338"
               y="0"
               x="0 13.995 27.99 41.985001 55.98 69.974998 83.970001 97.964996">之间的一个数字。</tspan></text>
<text
             id="text344"
             style="font-variant:normal;font-weight:bold;font-size:13.99499989px;font-family:Arial;-inkscape-font-specification:Arial-BoldMT;writing-mode:lr-tb;fill:#000000;fill-opacity:1;fill-rule:nonzero;stroke:none"
             transform="matrix(1,0,0,-1,348.7347,232.75)"><tspan
               id="tspan342"
               y="0"
               x="0 25.5 51 76.5 102">12345</tspan></text>
<text
             id="text348"
             style="font-variant:normal;font-weight:normal;font-size:13.99499989px;font-family:MicrosoftYaHei;-inkscape-font-specification:MicrosoftYaHei;writing-mode:lr-tb;fill:#000000;fill-opacity:1;fill-rule:nonzero;stroke:none"
             transform="matrix(1,0,0,-1,198.4302,211)"><tspan
               id="tspan346"
               y="0"
               x="0 13.995 27.99 41.985001 55.98 69.974998 83.970001 97.964996 111.96 125.955">录音和选的字非常不配</tspan></text>
</g></g></g><g
       transform="matrix(0.24,0,0,-0.24,0,612)"
       id="g350"><g
         clip-path="url(#clipPath356)"
         id="g352"><g
           transform="matrix(3.1250002,0,0,3.1250002,402.08337,570.83337)"
           id="g358"><g
             transform="translate(348.8,345.5)"
             id="g360"><path
               id="path362"
               style="fill:#ffffff;fill-opacity:1;fill-rule:nonzero;stroke:none"
               d="m 0,0 c 0,0.414 -0.04,0.823 -0.121,1.229 -0.081,0.406 -0.2,0.8 -0.359,1.182 C -0.638,2.793 -0.832,3.156 -1.062,3.5 -1.292,3.844 -1.553,4.162 -1.845,4.455 -2.138,4.747 -2.456,5.008 -2.8,5.238 -3.144,5.468 -3.507,5.662 -3.889,5.82 -4.271,5.979 -4.665,6.098 -5.071,6.179 -5.477,6.26 -5.886,6.3 -6.3,6.3 -6.714,6.3 -7.123,6.26 -7.529,6.179 -7.935,6.098 -8.329,5.979 -8.711,5.82 -9.093,5.662 -9.456,5.468 -9.8,5.238 -10.144,5.008 -10.462,4.747 -10.755,4.455 -11.047,4.162 -11.308,3.844 -11.538,3.5 -11.768,3.156 -11.962,2.793 -12.12,2.411 -12.279,2.029 -12.398,1.635 -12.479,1.229 -12.56,0.823 -12.6,0.414 -12.6,0 c 0,-0.414 0.04,-0.823 0.121,-1.229 0.081,-0.406 0.2,-0.8 0.359,-1.182 0.158,-0.382 0.352,-0.745 0.582,-1.089 0.23,-0.344 0.491,-0.662 0.783,-0.955 0.293,-0.292 0.611,-0.553 0.955,-0.783 0.344,-0.23 0.707,-0.424 1.089,-0.582 0.382,-0.159 0.776,-0.278 1.182,-0.359 0.406,-0.081 0.815,-0.121 1.229,-0.121 0.414,0 0.823,0.04 1.229,0.121 0.406,0.081 0.8,0.2 1.182,0.359 0.382,0.158 0.745,0.352 1.089,0.582 0.344,0.23 0.662,0.491 0.955,0.783 0.292,0.293 0.553,0.611 0.783,0.955 0.23,0.344 0.424,0.707 0.582,1.089 0.159,0.382 0.278,0.776 0.359,1.182 C -0.04,-0.823 0,-0.414 0,0 Z" /></g><g
             transform="translate(348.5,345.5)"
             id="g364"><path
               id="path366"
               style="fill:none;stroke:#767676;stroke-width:1;stroke-linecap:butt;stroke-linejoin:miter;stroke-miterlimit:4;stroke-dasharray:none;stroke-opacity:1"
               d="M 0,0 C 0,0.394 -0.038,0.784 -0.115,1.17 -0.192,1.557 -0.306,1.932 -0.457,2.296 -0.608,2.66 -0.792,3.006 -1.011,3.333 -1.23,3.661 -1.479,3.964 -1.757,4.243 -2.036,4.521 -2.339,4.77 -2.667,4.989 -2.994,5.208 -3.34,5.392 -3.704,5.543 -4.068,5.694 -4.443,5.808 -4.829,5.885 -5.216,5.962 -5.606,6 -6,6 -6.394,6 -6.784,5.962 -7.171,5.885 -7.557,5.808 -7.932,5.694 -8.296,5.543 -8.66,5.392 -9.006,5.208 -9.333,4.989 -9.661,4.77 -9.964,4.521 -10.243,4.243 -10.521,3.964 -10.77,3.661 -10.989,3.333 -11.208,3.006 -11.393,2.66 -11.543,2.296 -11.694,1.932 -11.808,1.557 -11.885,1.17 -11.962,0.784 -12,0.394 -12,0 c 0,-0.394 0.038,-0.784 0.115,-1.171 0.077,-0.386 0.191,-0.761 0.342,-1.125 0.15,-0.364 0.335,-0.71 0.554,-1.037 0.219,-0.328 0.468,-0.631 0.746,-0.91 0.279,-0.278 0.582,-0.527 0.91,-0.746 0.327,-0.219 0.673,-0.404 1.037,-0.554 0.364,-0.151 0.739,-0.265 1.125,-0.342 C -6.784,-5.962 -6.394,-6 -6,-6 c 0.394,0 0.784,0.038 1.171,0.115 0.386,0.077 0.761,0.191 1.125,0.342 0.364,0.15 0.71,0.335 1.037,0.554 0.328,0.219 0.631,0.468 0.91,0.746 0.278,0.279 0.527,0.582 0.746,0.91 0.219,0.327 0.403,0.673 0.554,1.037 0.151,0.364 0.265,0.739 0.342,1.125 C -0.038,-0.784 0,-0.394 0,0 Z" /></g></g></g></g><g
       transform="matrix(0.24,0,0,-0.24,0,612)"
       id="g368"><g
         clip-path="url(#clipPath374)"
         id="g370"><g
           transform="matrix(3.1250002,0,0,3.1250002,402.08337,570.83337)"
           id="g376"><g
             transform="translate(382.8,345.5)"
             id="g378"><path
               id="path380"
               style="fill:#ffffff;fill-opacity:1;fill-rule:nonzero;stroke:none"
               d="m 0,0 c 0,0.414 -0.04,0.823 -0.121,1.229 -0.081,0.406 -0.2,0.8 -0.359,1.182 C -0.638,2.793 -0.832,3.156 -1.062,3.5 -1.292,3.844 -1.553,4.162 -1.845,4.455 -2.138,4.747 -2.456,5.008 -2.8,5.238 -3.144,5.468 -3.507,5.662 -3.889,5.82 -4.271,5.979 -4.665,6.098 -5.071,6.179 -5.477,6.26 -5.886,6.3 -6.3,6.3 -6.714,6.3 -7.123,6.26 -7.529,6.179 -7.935,6.098 -8.329,5.979 -8.711,5.82 -9.093,5.662 -9.456,5.468 -9.8,5.238 -10.144,5.008 -10.462,4.747 -10.755,4.455 -11.047,4.162 -11.308,3.844 -11.538,3.5 -11.768,3.156 -11.962,2.793 -12.12,2.411 -12.279,2.029 -12.398,1.635 -12.479,1.229 -12.56,0.823 -12.6,0.414 -12.6,0 c 0,-0.414 0.04,-0.823 0.121,-1.229 0.081,-0.406 0.2,-0.8 0.359,-1.182 0.158,-0.382 0.352,-0.745 0.582,-1.089 0.23,-0.344 0.491,-0.662 0.783,-0.955 0.293,-0.292 0.611,-0.553 0.955,-0.783 0.344,-0.23 0.707,-0.424 1.089,-0.582 0.382,-0.159 0.776,-0.278 1.182,-0.359 0.406,-0.081 0.815,-0.121 1.229,-0.121 0.414,0 0.823,0.04 1.229,0.121 0.406,0.081 0.8,0.2 1.182,0.359 0.382,0.158 0.745,0.352 1.089,0.582 0.344,0.23 0.662,0.491 0.955,0.783 0.292,0.293 0.553,0.611 0.783,0.955 0.23,0.344 0.424,0.707 0.582,1.089 0.159,0.382 0.278,0.776 0.359,1.182 C -0.04,-0.823 0,-0.414 0,0 Z" /></g><g
             transform="translate(382.5,345.5)"
             id="g382"><path
               id="path384"
               style="fill:none;stroke:#767676;stroke-width:1;stroke-linecap:butt;stroke-linejoin:miter;stroke-miterlimit:4;stroke-dasharray:none;stroke-opacity:1"
               d="M 0,0 C 0,0.394 -0.038,0.784 -0.115,1.17 -0.192,1.557 -0.306,1.932 -0.457,2.296 -0.608,2.66 -0.792,3.006 -1.011,3.333 -1.23,3.661 -1.479,3.964 -1.757,4.243 -2.036,4.521 -2.339,4.77 -2.667,4.989 -2.994,5.208 -3.34,5.392 -3.704,5.543 -4.068,5.694 -4.443,5.808 -4.829,5.885 -5.216,5.962 -5.606,6 -6,6 -6.394,6 -6.784,5.962 -7.171,5.885 -7.557,5.808 -7.932,5.694 -8.296,5.543 -8.66,5.392 -9.006,5.208 -9.333,4.989 -9.661,4.77 -9.964,4.521 -10.243,4.243 -10.521,3.964 -10.77,3.661 -10.989,3.333 -11.208,3.006 -11.393,2.66 -11.543,2.296 -11.694,1.932 -11.808,1.557 -11.885,1.17 -11.962,0.784 -12,0.394 -12,0 c 0,-0.394 0.038,-0.784 0.115,-1.171 0.077,-0.386 0.191,-0.761 0.342,-1.125 0.15,-0.364 0.335,-0.71 0.554,-1.037 0.219,-0.328 0.468,-0.631 0.746,-0.91 0.279,-0.278 0.582,-0.527 0.91,-0.746 0.327,-0.219 0.673,-0.404 1.037,-0.554 0.364,-0.151 0.739,-0.265 1.125,-0.342 C -6.784,-5.962 -6.394,-6 -6,-6 c 0.394,0 0.784,0.038 1.171,0.115 0.386,0.077 0.761,0.191 1.125,0.342 0.364,0.15 0.71,0.335 1.037,0.554 0.328,0.219 0.631,0.468 0.91,0.746 0.278,0.279 0.527,0.582 0.746,0.91 0.219,0.327 0.403,0.673 0.554,1.037 0.151,0.364 0.265,0.739 0.342,1.125 C -0.038,-0.784 0,-0.394 0,0 Z" /></g></g></g></g><g
       transform="matrix(0.24,0,0,-0.24,0,612)"
       id="g386"><g
         clip-path="url(#clipPath392)"
         id="g388"><g
           transform="matrix(3.1250002,0,0,3.1250002,402.08337,570.83337)"
           id="g394"><g
             transform="translate(416.8,345.5)"
             id="g396"><path
               id="path398"
               style="fill:#ffffff;fill-opacity:1;fill-rule:nonzero;stroke:none"
               d="m 0,0 c 0,0.414 -0.04,0.823 -0.121,1.229 -0.081,0.406 -0.2,0.8 -0.359,1.182 C -0.638,2.793 -0.832,3.156 -1.062,3.5 -1.292,3.844 -1.553,4.162 -1.845,4.455 -2.138,4.747 -2.456,5.008 -2.8,5.238 -3.144,5.468 -3.507,5.662 -3.889,5.82 -4.271,5.979 -4.665,6.098 -5.071,6.179 -5.477,6.26 -5.886,6.3 -6.3,6.3 -6.714,6.3 -7.123,6.26 -7.529,6.179 -7.935,6.098 -8.329,5.979 -8.711,5.82 -9.093,5.662 -9.456,5.468 -9.8,5.238 -10.144,5.008 -10.462,4.747 -10.755,4.455 -11.047,4.162 -11.308,3.844 -11.538,3.5 -11.768,3.156 -11.962,2.793 -12.12,2.411 -12.279,2.029 -12.398,1.635 -12.479,1.229 -12.56,0.823 -12.6,0.414 -12.6,0 c 0,-0.414 0.04,-0.823 0.121,-1.229 0.081,-0.406 0.2,-0.8 0.359,-1.182 0.158,-0.382 0.352,-0.745 0.582,-1.089 0.23,-0.344 0.491,-0.662 0.783,-0.955 0.293,-0.292 0.611,-0.553 0.955,-0.783 0.344,-0.23 0.707,-0.424 1.089,-0.582 0.382,-0.159 0.776,-0.278 1.182,-0.359 0.406,-0.081 0.815,-0.121 1.229,-0.121 0.414,0 0.823,0.04 1.229,0.121 0.406,0.081 0.8,0.2 1.182,0.359 0.382,0.158 0.745,0.352 1.089,0.582 0.344,0.23 0.662,0.491 0.955,0.783 0.292,0.293 0.553,0.611 0.783,0.955 0.23,0.344 0.424,0.707 0.582,1.089 0.159,0.382 0.278,0.776 0.359,1.182 C -0.04,-0.823 0,-0.414 0,0 Z" /></g><g
             transform="translate(416.5,345.5)"
             id="g400"><path
               id="path402"
               style="fill:none;stroke:#767676;stroke-width:1;stroke-linecap:butt;stroke-linejoin:miter;stroke-miterlimit:4;stroke-dasharray:none;stroke-opacity:1"
               d="M 0,0 C 0,0.394 -0.038,0.784 -0.115,1.17 -0.192,1.557 -0.306,1.932 -0.457,2.296 -0.608,2.66 -0.792,3.006 -1.011,3.333 -1.23,3.661 -1.479,3.964 -1.757,4.243 -2.036,4.521 -2.339,4.77 -2.667,4.989 -2.994,5.208 -3.34,5.392 -3.704,5.543 -4.068,5.694 -4.443,5.808 -4.829,5.885 -5.216,5.962 -5.606,6 -6,6 -6.394,6 -6.784,5.962 -7.171,5.885 -7.557,5.808 -7.932,5.694 -8.296,5.543 -8.66,5.392 -9.006,5.208 -9.333,4.989 -9.661,4.77 -9.964,4.521 -10.243,4.243 -10.521,3.964 -10.77,3.661 -10.989,3.333 -11.208,3.006 -11.393,2.66 -11.543,2.296 -11.694,1.932 -11.808,1.557 -11.885,1.17 -11.962,0.784 -12,0.394 -12,0 c 0,-0.394 0.038,-0.784 0.115,-1.171 0.077,-0.386 0.191,-0.761 0.342,-1.125 0.15,-0.364 0.335,-0.71 0.554,-1.037 0.219,-0.328 0.468,-0.631 0.746,-0.91 0.279,-0.278 0.582,-0.527 0.91,-0.746 0.327,-0.219 0.673,-0.404 1.037,-0.554 0.364,-0.151 0.739,-0.265 1.125,-0.342 C -6.784,-5.962 -6.394,-6 -6,-6 c 0.394,0 0.784,0.038 1.171,0.115 0.386,0.077 0.761,0.191 1.125,0.342 0.364,0.15 0.71,0.335 1.037,0.554 0.328,0.219 0.631,0.468 0.91,0.746 0.278,0.279 0.527,0.582 0.746,0.91 0.219,0.327 0.403,0.673 0.554,1.037 0.151,0.364 0.265,0.739 0.342,1.125 C -0.038,-0.784 0,-0.394 0,0 Z" /></g></g></g></g><g
       transform="matrix(0.24,0,0,-0.24,0,612)"
       id="g404"><g
         clip-path="url(#clipPath410)"
         id="g406"><g
           transform="matrix(3.1250002,0,0,3.1250002,402.08337,570.83337)"
           id="g412"><g
             transform="translate(450.8,345.5)"
             id="g414"><path
               id="path416"
               style="fill:#ffffff;fill-opacity:1;fill-rule:nonzero;stroke:none"
               d="m 0,0 c 0,0.414 -0.04,0.823 -0.121,1.229 -0.081,0.406 -0.2,0.8 -0.359,1.182 C -0.638,2.793 -0.832,3.156 -1.062,3.5 -1.292,3.844 -1.553,4.162 -1.845,4.455 -2.138,4.747 -2.456,5.008 -2.8,5.238 -3.144,5.468 -3.507,5.662 -3.889,5.82 -4.271,5.979 -4.665,6.098 -5.071,6.179 -5.477,6.26 -5.886,6.3 -6.3,6.3 -6.714,6.3 -7.123,6.26 -7.529,6.179 -7.935,6.098 -8.329,5.979 -8.711,5.82 -9.093,5.662 -9.456,5.468 -9.8,5.238 -10.144,5.008 -10.462,4.747 -10.755,4.455 -11.047,4.162 -11.308,3.844 -11.538,3.5 -11.768,3.156 -11.962,2.793 -12.121,2.411 -12.279,2.029 -12.398,1.635 -12.479,1.229 -12.56,0.823 -12.6,0.414 -12.6,0 c 0,-0.414 0.04,-0.823 0.121,-1.229 0.081,-0.406 0.2,-0.8 0.358,-1.182 0.159,-0.382 0.353,-0.745 0.583,-1.089 0.23,-0.344 0.491,-0.662 0.783,-0.955 0.293,-0.292 0.611,-0.553 0.955,-0.783 0.344,-0.23 0.707,-0.424 1.089,-0.582 0.382,-0.159 0.776,-0.278 1.182,-0.359 0.406,-0.081 0.815,-0.121 1.229,-0.121 0.414,0 0.823,0.04 1.229,0.121 0.406,0.081 0.8,0.2 1.182,0.359 0.382,0.158 0.745,0.352 1.089,0.582 0.344,0.23 0.662,0.491 0.955,0.783 0.292,0.293 0.553,0.611 0.783,0.955 0.23,0.344 0.424,0.707 0.582,1.089 0.159,0.382 0.278,0.776 0.359,1.182 C -0.04,-0.823 0,-0.414 0,0 Z" /></g><g
             transform="translate(450.5,345.5)"
             id="g418"><path
               id="path420"
               style="fill:none;stroke:#767676;stroke-width:1;stroke-linecap:butt;stroke-linejoin:miter;stroke-miterlimit:4;stroke-dasharray:none;stroke-opacity:1"
               d="M 0,0 C 0,0.394 -0.038,0.784 -0.115,1.17 -0.192,1.557 -0.306,1.932 -0.457,2.296 -0.608,2.66 -0.792,3.006 -1.011,3.333 -1.23,3.661 -1.479,3.964 -1.757,4.243 -2.036,4.521 -2.339,4.77 -2.667,4.989 -2.994,5.208 -3.34,5.392 -3.704,5.543 -4.068,5.694 -4.443,5.808 -4.829,5.885 -5.216,5.962 -5.606,6 -6,6 -6.394,6 -6.784,5.962 -7.171,5.885 -7.557,5.808 -7.932,5.694 -8.296,5.543 -8.66,5.392 -9.006,5.208 -9.333,4.989 -9.661,4.77 -9.964,4.521 -10.243,4.243 -10.521,3.964 -10.77,3.661 -10.989,3.333 -11.208,3.006 -11.393,2.66 -11.543,2.296 -11.694,1.932 -11.808,1.557 -11.885,1.17 -11.962,0.784 -12,0.394 -12,0 c 0,-0.394 0.038,-0.784 0.115,-1.171 0.077,-0.386 0.191,-0.761 0.342,-1.125 0.15,-0.364 0.335,-0.71 0.554,-1.037 0.219,-0.328 0.468,-0.631 0.746,-0.91 0.279,-0.278 0.582,-0.527 0.91,-0.746 0.327,-0.219 0.673,-0.404 1.037,-0.554 0.364,-0.151 0.739,-0.265 1.125,-0.342 C -6.784,-5.962 -6.394,-6 -6,-6 c 0.394,0 0.784,0.038 1.171,0.115 0.386,0.077 0.761,0.191 1.125,0.342 0.364,0.15 0.71,0.335 1.037,0.554 0.328,0.219 0.631,0.468 0.91,0.746 0.278,0.279 0.527,0.582 0.746,0.91 0.219,0.327 0.403,0.673 0.554,1.037 0.151,0.364 0.265,0.739 0.342,1.125 C -0.038,-0.784 0,-0.394 0,0 Z" /></g></g></g></g><g
       transform="matrix(0.24,0,0,-0.24,0,612)"
       id="g422"><g
         clip-path="url(#clipPath428)"
         id="g424"><g
           transform="matrix(3.1250002,0,0,3.1250002,402.08337,570.83337)"
           id="g430"><g
             transform="translate(484.8,345.5)"
             id="g432"><path
               id="path434"
               style="fill:#ffffff;fill-opacity:1;fill-rule:nonzero;stroke:none"
               d="m 0,0 c 0,0.414 -0.04,0.823 -0.121,1.229 -0.081,0.406 -0.2,0.8 -0.359,1.182 C -0.638,2.793 -0.832,3.156 -1.062,3.5 -1.292,3.844 -1.553,4.162 -1.845,4.455 -2.138,4.747 -2.456,5.008 -2.8,5.238 -3.144,5.468 -3.507,5.662 -3.889,5.82 -4.271,5.979 -4.665,6.098 -5.071,6.179 -5.477,6.26 -5.886,6.3 -6.3,6.3 -6.714,6.3 -7.123,6.26 -7.529,6.179 -7.935,6.098 -8.329,5.979 -8.711,5.82 -9.093,5.662 -9.456,5.468 -9.8,5.238 -10.144,5.008 -10.462,4.747 -10.755,4.455 -11.047,4.162 -11.308,3.844 -11.538,3.5 -11.768,3.156 -11.962,2.793 -12.12,2.411 -12.279,2.029 -12.398,1.635 -12.479,1.229 -12.56,0.823 -12.6,0.414 -12.6,0 c 0,-0.414 0.04,-0.823 0.121,-1.229 0.081,-0.406 0.2,-0.8 0.359,-1.182 0.158,-0.382 0.352,-0.745 0.582,-1.089 0.23,-0.344 0.491,-0.662 0.783,-0.955 0.293,-0.292 0.611,-0.553 0.955,-0.783 0.344,-0.23 0.707,-0.424 1.089,-0.582 0.382,-0.159 0.776,-0.278 1.182,-0.359 0.406,-0.081 0.815,-0.121 1.229,-0.121 0.414,0 0.823,0.04 1.229,0.121 0.406,0.081 0.8,0.2 1.182,0.359 0.382,0.158 0.745,0.352 1.089,0.582 0.344,0.23 0.662,0.491 0.955,0.783 0.292,0.293 0.553,0.611 0.783,0.955 0.23,0.344 0.424,0.707 0.582,1.089 0.159,0.382 0.278,0.776 0.359,1.182 C -0.04,-0.823 0,-0.414 0,0 Z" /></g><g
             transform="translate(484.5,345.5)"
             id="g436"><path
               id="path438"
               style="fill:none;stroke:#767676;stroke-width:1;stroke-linecap:butt;stroke-linejoin:miter;stroke-miterlimit:4;stroke-dasharray:none;stroke-opacity:1"
               d="M 0,0 C 0,0.394 -0.038,0.784 -0.115,1.17 -0.192,1.557 -0.306,1.932 -0.457,2.296 -0.608,2.66 -0.792,3.006 -1.011,3.333 -1.23,3.661 -1.479,3.964 -1.757,4.243 -2.036,4.521 -2.339,4.77 -2.667,4.989 -2.994,5.208 -3.34,5.392 -3.704,5.543 -4.068,5.694 -4.443,5.808 -4.829,5.885 -5.216,5.962 -5.606,6 -6,6 -6.394,6 -6.784,5.962 -7.171,5.885 -7.557,5.808 -7.932,5.694 -8.296,5.543 -8.66,5.392 -9.006,5.208 -9.333,4.989 -9.661,4.77 -9.964,4.521 -10.243,4.243 -10.521,3.964 -10.77,3.661 -10.989,3.333 -11.208,3.006 -11.393,2.66 -11.543,2.296 -11.694,1.932 -11.808,1.557 -11.885,1.17 -11.962,0.784 -12,0.394 -12,0 c 0,-0.394 0.038,-0.784 0.115,-1.171 0.077,-0.386 0.191,-0.761 0.342,-1.125 0.15,-0.364 0.335,-0.71 0.554,-1.037 0.219,-0.328 0.468,-0.631 0.746,-0.91 0.279,-0.278 0.582,-0.527 0.91,-0.746 0.327,-0.219 0.673,-0.404 1.037,-0.554 0.364,-0.151 0.739,-0.265 1.125,-0.342 C -6.784,-5.962 -6.394,-6 -6,-6 c 0.394,0 0.784,0.038 1.171,0.115 0.386,0.077 0.761,0.191 1.125,0.342 0.364,0.15 0.71,0.335 1.037,0.554 0.328,0.219 0.631,0.468 0.91,0.746 0.278,0.279 0.527,0.582 0.746,0.91 0.219,0.327 0.403,0.673 0.554,1.037 0.151,0.364 0.265,0.739 0.342,1.125 C -0.038,-0.784 0,-0.394 0,0 Z" /></g></g></g></g><g
       transform="matrix(0.24,0,0,-0.24,0,612)"
       id="g440"><g
         clip-path="url(#clipPath446)"
         id="g442"><g
           transform="matrix(4.1666668,0,0,-4.1666668,0,2550.0001)"
           id="g448"><text
             id="text452"
             style="font-variant:normal;font-weight:normal;font-size:13.99499989px;font-family:MicrosoftYaHei;-inkscape-font-specification:MicrosoftYaHei;writing-mode:lr-tb;fill:#000000;fill-opacity:1;fill-rule:nonzero;stroke:none"
             transform="matrix(1,0,0,-1,468.875,211)"><tspan
               id="tspan450"
               y="0"
               x="0 13.995 27.99 41.985001 55.98 69.974998 83.970001 97.964996 111.96">录音和选的字非常配</tspan></text>
</g></g></g><g
       transform="matrix(0.24,0,0,-0.24,0,612)"
       id="g454"><g
         clip-path="url(#clipPath460)"
         id="g456"><g
           transform="matrix(3.1250002,0,0,3.1250002,402.08337,570.83337)"
           id="g462"><g
             transform="translate(372.5,449.5)"
             id="g464"><path
               id="path466"
               style="fill:#efefef;fill-opacity:1;fill-rule:nonzero;stroke:none"
               d="m 0,0 v -27 c 0,-0.265 0.051,-0.52 0.152,-0.765 0.102,-0.245 0.246,-0.462 0.434,-0.649 0.187,-0.188 0.404,-0.332 0.649,-0.434 C 1.48,-28.949 1.735,-29 2,-29 h 51 c 0.265,0 0.52,0.051 0.765,0.152 0.245,0.102 0.462,0.246 0.649,0.434 0.188,0.187 0.332,0.404 0.434,0.649 C 54.949,-27.52 55,-27.265 55,-27 V 0 C 55,0.265 54.949,0.52 54.848,0.765 54.746,1.01 54.602,1.227 54.414,1.414 54.227,1.602 54.01,1.746 53.765,1.848 53.52,1.949 53.265,2 53,2 H 2 C 1.735,2 1.48,1.949 1.235,1.848 0.99,1.746 0.773,1.602 0.586,1.414 0.398,1.227 0.254,1.01 0.152,0.765 0.051,0.52 0,0.265 0,0 Z" /></g><g
             transform="translate(372.5,449.5)"
             id="g468"><path
               id="path470"
               style="fill:none;stroke:#767676;stroke-width:1;stroke-linecap:butt;stroke-linejoin:miter;stroke-miterlimit:4;stroke-dasharray:none;stroke-opacity:1"
               d="m 0,0 v -27 c 0,-0.265 0.051,-0.52 0.152,-0.765 0.102,-0.245 0.246,-0.462 0.434,-0.649 0.187,-0.188 0.404,-0.332 0.649,-0.434 C 1.48,-28.949 1.735,-29 2,-29 h 51 c 0.265,0 0.52,0.051 0.765,0.152 0.245,0.102 0.462,0.246 0.649,0.434 0.188,0.187 0.332,0.404 0.434,0.649 C 54.949,-27.52 55,-27.265 55,-27 V 0 C 55,0.265 54.949,0.52 54.848,0.765 54.746,1.01 54.602,1.227 54.414,1.414 54.227,1.602 54.01,1.746 53.765,1.848 53.52,1.949 53.265,2 53,2 H 2 C 1.735,2 1.48,1.949 1.235,1.848 0.99,1.746 0.773,1.602 0.586,1.414 0.398,1.227 0.254,1.01 0.152,0.765 0.051,0.52 0,0.265 0,0 Z" /></g></g></g></g><g
       transform="matrix(0.24,0,0,-0.24,0,612)"
       id="g472"><g
         clip-path="url(#clipPath478)"
         id="g474"><g
           transform="matrix(4.1666668,0,0,-4.1666668,0,2550.0001)"
           id="g480"><text
             id="text484"
             style="font-variant:normal;font-weight:normal;font-size:15px;font-family:MicrosoftYaHei;-inkscape-font-specification:MicrosoftYaHei;writing-mode:lr-tb;fill:#000000;fill-opacity:1;fill-rule:nonzero;stroke:none"
             transform="matrix(1,0,0,-1,381.5,142)"><tspan
               id="tspan482"
               y="0"
               x="0 15">提交</tspan></text>
</g></g></g><text
       id="text488"
       style="font-variant:normal;font-weight:normal;font-stretch:normal;font-size:15.99699974px;font-family:Arial;-inkscape-font-specification:Arial;writing-mode:lr-tb;fill:#0000ff;fill-opacity:1;fill-rule:nonzero;stroke:none"
       transform="matrix(1,0,0,-1,97.637,402.591)"><tspan
         id="tspan486"
         y="0"
         x="0 15.101168 23.995501 27.546835 35.545334 44.439667 48.886833 60.436665 69.331001 74.657997 83.55233 87.999496 96.893829 100.44516 109.33949 113.78666 121.78516 130.67949 139.57382 144.021 152.91533 161.80966 170.70398 176.03099">Which word did you hear?</tspan></text>
<text
       id="text492"
       style="font-variant:normal;font-weight:normal;font-stretch:normal;font-size:14px;font-family:Arial;-inkscape-font-specification:Arial;writing-mode:lr-tb;fill:#0000ff;fill-opacity:1;fill-rule:nonzero;stroke:none"
       transform="matrix(1,0,0,-1,294.939,369.783)"><tspan
         id="tspan490"
         y="0"
         x="0 3.892 11.676 14.784 21.784 25.676001 33.459999">/θiʔ 5/</tspan></text>
<text
       id="text496"
       style="font-variant:normal;font-weight:normal;font-stretch:normal;font-size:14px;font-family:Arial;-inkscape-font-specification:Arial;writing-mode:lr-tb;fill:#0000ff;fill-opacity:1;fill-rule:nonzero;stroke:none"
       transform="matrix(1,0,0,-1,250.939,369.783)"><tspan
         id="tspan494"
         y="0"
         x="0 3.892 11.676 14.784 18.676001 26.459999 34.243999">/θi 35/</tspan></text>
<text
       id="text500"
       style="font-variant:normal;font-weight:normal;font-stretch:normal;font-size:14px;font-family:Arial;-inkscape-font-specification:Arial;writing-mode:lr-tb;fill:#0000ff;fill-opacity:1;fill-rule:nonzero;stroke:none"
       transform="matrix(1,0,0,-1,335.939,369.783)"><tspan
         id="tspan498"
         y="0"
         x="0 3.892 11.676 14.784 21.784 25.676001 33.459999">/θiʔ 2/</tspan></text>
<text
       id="text504"
       style="font-variant:normal;font-weight:normal;font-stretch:normal;font-size:14px;font-family:Arial;-inkscape-font-specification:Arial;writing-mode:lr-tb;fill:#0000ff;fill-opacity:1;fill-rule:nonzero;stroke:none"
       transform="matrix(1,0,0,-1,381.939,369.783)"><tspan
         id="tspan502"
         y="0"
         x="0 3.892 11.676 14.784 18.676001 26.459999 34.243999">/θi 42/</tspan></text>
<text
       id="text508"
       style="font-variant:normal;font-weight:normal;font-stretch:normal;font-size:14px;font-family:Arial;-inkscape-font-specification:Arial;writing-mode:lr-tb;fill:#0000ff;fill-opacity:1;fill-rule:nonzero;stroke:none"
       transform="matrix(1,0,0,-1,421.939,369.783)"><tspan
         id="tspan506"
         y="0"
         x="0 3.892 11.676 14.784 18.676001 26.459999 34.243999">/θi 23/</tspan></text>
<text
       id="text512"
       style="font-variant:normal;font-weight:normal;font-stretch:normal;font-size:14px;font-family:Arial;-inkscape-font-specification:Arial;writing-mode:lr-tb;fill:#0000ff;fill-opacity:1;fill-rule:nonzero;stroke:none"
       transform="matrix(1,0,0,-1,462.439,369.185)"><tspan
         id="tspan510"
         y="0"
         x="0 3.892 11.676 14.784 18.676001 26.459999 34.243999">/θi 11/</tspan></text>
<text
       id="text516"
       style="font-variant:normal;font-weight:normal;font-stretch:normal;font-size:14px;font-family:Arial;-inkscape-font-specification:Arial;writing-mode:lr-tb;fill:#0000ff;fill-opacity:1;fill-rule:nonzero;stroke:none"
       transform="matrix(1,0,0,-1,503.439,369.185)"><tspan
         id="tspan514"
         y="0"
         x="0 3.892 11.676 14.784 18.676001 26.459999 34.243999">/θi 44/</tspan></text>
<text
       id="text522"
       style="font-variant:normal;font-weight:normal;font-stretch:normal;font-size:14px;font-family:Arial;-inkscape-font-specification:Arial;writing-mode:lr-tb;fill:#0000ff;fill-opacity:1;fill-rule:nonzero;stroke:none"
       transform="matrix(1,0,0,-1,97.415,305.167)"><tspan
         id="tspan518"
         y="0"
         x="0 10.108 17.892 25.676001 32.675999 36.568001 40.459999 48.243999 56.028 59.919998 64.582001 72.365997 79.365997 87.150002 91.811996 99.596001 102.704 110.488 118.272 122.164 126.056 129.164 133.056 136.948 140.84 148.62399 156.408 160.3 170.408 178.192 182.854 190.638 194.53 201.53 209.314 217.09801 220.99001 227.99001 235.774 243.558 250.558 258.34201 266.12601 270.01801 277.802 281.694 293.35599 301.14001 308.92401 316.70801 323.70801 327.60001 334.60001 342.384 347.04599 354.04599 357.93799 365.72198 373.50601 381.29001 385.952 389.06 396.06 399.952 403.84399 411.62799 415.51999 427.18201 434.966 442.75 450.534 457.534 461.42599 468.42599 476.20999 480.87201 487.87201 491.76401 501.87201 509.65601 512.76398 515.87201 519.76398 523.65601 532.99402 536.10199 543.88599 551.66998 558.66998 566.45398">Does the recording fit the word you chose? 1 means very poorly; 5 means very well. Please </tspan><tspan
         id="tspan520"
         y="16.799999"
         x="0 7 14.784 22.568001 30.351999 37.352001 45.136002 49.028 56.812 60.703999 68.487999 76.272003 87.933998 95.718002 103.502 108.164 112.056 119.84 127.624 131.51601 141.62399 149.408 157.192 164.976 168.868 176.65199 180.54401 184.436 192.22 196.112 203.896">choose a number between 1 to 5.</tspan></text>
<text
       id="text526"
       style="font-variant:normal;font-weight:normal;font-stretch:normal;font-size:14px;font-family:'Microsoft YaHei';-inkscape-font-specification:MicrosoftYaHei;writing-mode:lr-tb;fill:#0000ff;fill-opacity:1;fill-rule:nonzero;stroke:none"
       transform="matrix(1,0,0,-1,123.668,191.98)"><tspan
         id="tspan524"
         y="0"
         x="0 9.1420002 17.08 24.094 32.998001 38.346001 47.306 51.029999 59.653999 68.613998 72.758003 81.718002 90.622002 98.559998 105.042 109.186 117.81 126.714 131.936 136.08 140.938 144.662 149.884 154.028 159.25 167.87399 175.812 179.95599 191.01601 199.92 205.26801">Recording does not fit the word</tspan></text>
<text
       id="text530"
       style="font-variant:normal;font-weight:normal;font-stretch:normal;font-size:14px;font-family:'Microsoft YaHei';-inkscape-font-specification:MicrosoftYaHei;writing-mode:lr-tb;fill:#0000ff;fill-opacity:1;fill-rule:nonzero;stroke:none"
       transform="matrix(1,0,0,-1,468.668,191.98)"><tspan
         id="tspan528"
         y="0"
         x="0 9.1420002 17.08 24.094 32.998001 38.346001 47.306 51.029999 59.653999 68.613998 72.758003 77.615997 81.339996 86.561996 93.043999 97.188004 102.41 111.034 118.972 123.116 134.17599 143.08 148.42799 157.388 161.532 168.882 176.82001 182.168 189.57401 193.718 204.778 212.716 216.44">Recording fits the word very well</tspan></text>
</g></svg>